<svg xmlns="http://www.w3.org/2000/svg" width="2400" height="1350" viewBox="0 0 2400 1350" role="img" aria-label="Big Ben with blue fiber-optic digital rain">
  <defs>
    <linearGradient id="g0" x1="0" y1="0" x2="1" y2="1">
      <stop offset="0" stop-color="#05070c"/>
      <stop offset="1" stop-color="#0b1020"/>
    </linearGradient>
    <radialGradient id="goldGlow" cx="30%" cy="24%" r="70%">
      <stop offset="0" stop-color="rgba(212,175,55,.26)"/>
      <stop offset="0.55" stop-color="rgba(212,175,55,.08)"/>
      <stop offset="1" stop-color="rgba(212,175,55,0)"/>
    </radialGradient>
    <radialGradient id="blueGlow" cx="80%" cy="18%" r="70%">
      <stop offset="0" stop-color="rgba(160,220,255,.10)"/>
      <stop offset="1" stop-color="rgba(120,180,255,0)"/>
    </radialGradient>
    <filter id="blur" x="-20%" y="-20%" width="140%" height="140%">
      <feGaussianBlur stdDeviation="8"/>
    </filter>
  </defs>

  <rect width="2400" height="1350" fill="url(#g0)"/>
  <rect width="2400" height="1350" fill="url(#goldGlow)"/>
  <rect width="2400" height="1350" fill="url(#blueGlow)"/>

  <g opacity="0.8"><path d="M 554.0 943.2 Q 1705.5 1081.5 2514.7 1267.5" stroke="rgba(243,210,122,0.102)" stroke-width="1.71" fill="none"/><path d="M 1323.9 32.8 Q 1478.4 159.6 2245.2 168.7" stroke="rgba(243,210,122,0.062)" stroke-width="1.94" fill="none"/><path d="M 200.2 1156.7 Q 1423.9 739.7 2072.4 571.0" stroke="rgba(243,210,122,0.097)" stroke-width="1.69" fill="none"/><path d="M 2309.2 208.8 Q 1227.3 612.2 314.7 1334.1" stroke="rgba(243,210,122,0.096)" stroke-width="1.25" fill="none"/><path d="M 753.9 662.5 Q 914.1 1048.0 1627.2 1241.6" stroke="rgba(243,210,122,0.111)" stroke-width="1.98" fill="none"/><path d="M 69.4 292.6 Q 330.9 191.9 686.2 -81.8" stroke="rgba(243,210,122,0.115)" stroke-width="2.03" fill="none"/><path d="M 1529.0 107.8 Q 363.7 689.9 -199.6 971.5" stroke="rgba(243,210,122,0.099)" stroke-width="2.08" fill="none"/><path d="M 2520.9 334.2 Q 2418.1 99.8 2520.5 -13.4" stroke="rgba(243,210,122,0.088)" stroke-width="1.00" fill="none"/><path d="M 2330.4 1103.8 Q 2735.6 625.1 2527.9 -17.1" stroke="rgba(243,210,122,0.130)" stroke-width="1.82" fill="none"/><path d="M 480.9 1211.7 Q 569.6 1295.0 368.0 1006.2" stroke="rgba(243,210,122,0.093)" stroke-width="1.27" fill="none"/><path d="M 62.1 92.3 Q 1192.1 428.0 2204.0 630.8" stroke="rgba(243,210,122,0.111)" stroke-width="1.85" fill="none"/><path d="M 2261.8 440.3 Q 1289.8 417.6 209.8 739.3" stroke="rgba(243,210,122,0.063)" stroke-width="1.39" fill="none"/><path d="M 754.6 1309.9 Q 1322.7 1100.8 2336.5 1253.1" stroke="rgba(243,210,122,0.062)" stroke-width="2.20" fill="none"/><path d="M 1574.0 108.0 Q 1217.8 -135.0 167.3 56.5" stroke="rgba(243,210,122,0.065)" stroke-width="1.50" fill="none"/></g>
  <g><circle cx="1236.6" cy="1085.8" r="2.6" fill="rgba(212,175,55,0.119)"/><circle cx="849.8" cy="1171.9" r="3.7" fill="rgba(212,175,55,0.122)"/><circle cx="254.5" cy="316.7" r="4.7" fill="rgba(212,175,55,0.135)"/><circle cx="2349.7" cy="903.8" r="5.9" fill="rgba(212,175,55,0.110)"/><circle cx="1734.8" cy="858.7" r="3.4" fill="rgba(212,175,55,0.093)"/><circle cx="1535.1" cy="625.8" r="2.3" fill="rgba(212,175,55,0.110)"/><circle cx="1291.8" cy="1015.7" r="2.3" fill="rgba(212,175,55,0.081)"/><circle cx="1400.4" cy="1150.6" r="2.6" fill="rgba(212,175,55,0.053)"/><circle cx="374.3" cy="50.1" r="3.3" fill="rgba(212,175,55,0.110)"/><circle cx="1932.0" cy="535.6" r="4.5" fill="rgba(212,175,55,0.115)"/><circle cx="1139.6" cy="324.2" r="3.8" fill="rgba(212,175,55,0.076)"/><circle cx="152.6" cy="1109.2" r="5.1" fill="rgba(212,175,55,0.082)"/><circle cx="645.6" cy="1286.9" r="5.4" fill="rgba(212,175,55,0.119)"/><circle cx="269.6" cy="365.3" r="3.3" fill="rgba(212,175,55,0.074)"/><circle cx="763.8" cy="602.8" r="5.1" fill="rgba(212,175,55,0.060)"/><circle cx="1209.1" cy="831.1" r="5.0" fill="rgba(212,175,55,0.063)"/><circle cx="1685.5" cy="214.3" r="3.7" fill="rgba(212,175,55,0.127)"/><circle cx="1557.3" cy="838.7" r="4.2" fill="rgba(212,175,55,0.127)"/><circle cx="1968.5" cy="182.5" r="4.8" fill="rgba(212,175,55,0.069)"/><circle cx="1815.2" cy="123.9" r="2.7" fill="rgba(212,175,55,0.052)"/><circle cx="1031.2" cy="385.5" r="2.2" fill="rgba(212,175,55,0.062)"/><circle cx="1635.2" cy="599.9" r="2.4" fill="rgba(212,175,55,0.128)"/><circle cx="549.0" cy="543.8" r="3.3" fill="rgba(212,175,55,0.066)"/><circle cx="1530.7" cy="567.5" r="2.1" fill="rgba(212,175,55,0.126)"/><circle cx="1497.3" cy="1150.6" r="3.4" fill="rgba(212,175,55,0.075)"/><circle cx="2246.7" cy="624.2" r="5.2" fill="rgba(212,175,55,0.059)"/><circle cx="806.3" cy="884.4" r="5.6" fill="rgba(212,175,55,0.108)"/><circle cx="445.4" cy="1268.4" r="2.3" fill="rgba(212,175,55,0.124)"/><circle cx="1019.8" cy="323.4" r="2.4" fill="rgba(212,175,55,0.064)"/><circle cx="1944.6" cy="1111.2" r="5.8" fill="rgba(212,175,55,0.110)"/><circle cx="687.6" cy="1124.8" r="4.6" fill="rgba(212,175,55,0.081)"/><circle cx="305.3" cy="368.6" r="2.3" fill="rgba(212,175,55,0.090)"/><circle cx="2326.9" cy="1289.0" r="4.2" fill="rgba(212,175,55,0.058)"/><circle cx="18.3" cy="401.5" r="3.6" fill="rgba(212,175,55,0.057)"/><circle cx="34.5" cy="79.2" r="5.0" fill="rgba(212,175,55,0.095)"/><circle cx="1955.3" cy="850.4" r="5.9" fill="rgba(212,175,55,0.133)"/><circle cx="1298.9" cy="186.8" r="4.3" fill="rgba(212,175,55,0.136)"/><circle cx="1407.8" cy="1239.3" r="2.7" fill="rgba(212,175,55,0.107)"/></g>

  <g filter="url(#blur)" opacity="0.9">
    <circle cx="1752.0" cy="621.0" r="210" fill="rgba(255,255,255,.04)"/>
  </g>

  <g><circle cx="1752.0" cy="621.0" r="160" fill="none" stroke="rgba(212,175,55,0.180)" stroke-width="1.2"/><circle cx="1752.0" cy="621.0" r="215" fill="none" stroke="rgba(212,175,55,0.150)" stroke-width="1.2"/><circle cx="1752.0" cy="621.0" r="270" fill="none" stroke="rgba(212,175,55,0.120)" stroke-width="1.2"/><circle cx="1752.0" cy="621.0" r="325" fill="none" stroke="rgba(212,175,55,0.090)" stroke-width="1.2"/></g>

  <g>
    <rect x="1562.0" y="555.0" width="380" height="132" rx="26" fill="rgba(255,255,255,.05)" stroke="rgba(255,255,255,.10)"/>
    <text x="1752.0" y="613.0" text-anchor="middle" font-family="ui-sans-serif,system-ui" font-size="50" fill="rgba(245,247,255,.92)" letter-spacing="2">W3</text>
    <text x="1752.0" y="655.0" text-anchor="middle" font-family="ui-sans-serif,system-ui" font-size="22" fill="rgba(245,247,255,.60)" letter-spacing="1">w3.london</text>
  </g>

  <g opacity="0.9">
    <circle cx="432.0" cy="1053.0" r="280" fill="rgba(212,175,55,.06)"/>
    <circle cx="432.0" cy="1053.0" r="279" fill="none" stroke="rgba(255,255,255,.06)"/>
  </g>
</svg>